<svg width="20" height="18" viewBox="0 0 20 18" fill="none" xmlns="http://www.w3.org/2000/svg">
<path d="M1.99995 11L13.7 11L10.5 14.7C9.79995 15.5 9.89995 16.8 10.7 17.5C11.5 18.2 12.8 18.1 13.5 17.3L19.5 10.3C20.1 9.60003 20.1 8.40003 19.5 7.70003L13.5 0.700027C13.1 0.200027 12.5 2.60516e-05 12 2.60079e-05C11.5 2.59642e-05 11.1 0.200027 10.7 0.500026C9.89995 1.20003 9.79995 2.50002 10.5 3.30003L13.7 7.00003L1.99995 7.00003C0.899951 7.00003 -4.87109e-05 7.90002 -4.8807e-05 9.00002C-4.89032e-05 10.1 0.899951 11 1.99995 11Z" fill="#009AA6"/>
</svg>
