<svg width="32" height="40" viewBox="0 0 32 40" fill="none" xmlns="http://www.w3.org/2000/svg">
<path d="M16.0687 36.0489C20.1868 36.0489 23.6675 34.4751 25.6982 31.6115H6.46764C8.49908 34.4743 12.0555 36.0489 16.0711 36.0489M4.50946 25.0012C4.50334 25.9702 4.64878 26.9348 4.94111 27.8641H27.2539C27.5114 26.9286 27.6471 25.9673 27.6579 25.0012V23.4281H4.50946V25.0012ZM4.50946 19.5143H27.6587V11.453H4.50946V19.5143ZM2.54024 7.4194H29.4003C29.742 7.41566 30.0811 7.47595 30.3977 7.59676C30.7143 7.71758 31.0021 7.89648 31.2441 8.12299C31.4862 8.34951 31.6777 8.61909 31.8074 8.91595C31.9372 9.21281 32.0025 9.53098 31.9997 9.85185V24.9775C31.9997 28.9617 30.314 32.7828 27.3134 35.6C24.3129 38.4173 20.2432 40 15.9998 40C11.7564 40 7.68676 38.4173 4.68621 35.6C1.68565 32.7828 -3.95597e-05 28.9617 -3.95597e-05 24.9775V9.85259C-0.00430434 9.53596 0.0581483 9.22166 0.183726 8.92778C0.309303 8.63389 0.495527 8.36622 0.731686 8.14016C0.967844 7.9141 1.24928 7.7341 1.55979 7.61054C1.87031 7.48697 2.20378 7.42226 2.54103 7.42014M29.0451 2.1448C29.0451 2.56899 28.9111 2.98365 28.6601 3.33636C28.4091 3.68906 28.0523 3.96396 27.6349 4.12629C27.2175 4.28862 26.7582 4.33109 26.3151 4.24834C25.872 4.16558 25.465 3.96131 25.1455 3.66136C24.8261 3.36141 24.6085 2.97926 24.5204 2.56322C24.4322 2.14717 24.4775 1.71594 24.6504 1.32403C24.8233 0.932132 25.116 0.597167 25.4917 0.361499C25.8673 0.125831 26.309 4.33585e-05 26.7608 4.33585e-05C27.061 -0.000737454 27.3584 0.0542052 27.6359 0.161713C27.9134 0.26922 28.1656 0.427171 28.3779 0.626485C28.5901 0.8258 28.7584 1.06255 28.8729 1.32311C28.9874 1.58368 29.0459 1.86292 29.0451 2.1448ZM21.8771 2.1448C21.8771 2.56899 21.7432 2.98365 21.4922 3.33636C21.2411 3.68906 20.8844 3.96396 20.467 4.12629C20.0496 4.28862 19.5903 4.33109 19.1472 4.24834C18.7041 4.16558 18.2971 3.96131 17.9776 3.66136C17.6581 3.36141 17.4406 2.97926 17.3524 2.56322C17.2643 2.14717 17.3095 1.71594 17.4824 1.32403C17.6553 0.932132 17.9481 0.597167 18.3238 0.361499C18.6994 0.125831 19.141 4.33585e-05 19.5928 4.33585e-05C19.8931 -0.000835599 20.1905 0.0540401 20.4681 0.161513C20.7457 0.268985 20.9979 0.426933 21.2102 0.626267C21.4225 0.8256 21.5907 1.06239 21.7052 1.323C21.8196 1.58361 21.8781 1.8629 21.8771 2.1448ZM14.6848 2.1448C14.6848 2.56899 14.5508 2.98365 14.2998 3.33636C14.0488 3.68906 13.692 3.96396 13.2746 4.12629C12.8572 4.28862 12.398 4.33109 11.9548 4.24834C11.5117 4.16558 11.1047 3.96131 10.7853 3.66136C10.4658 3.36141 10.2482 2.97926 10.1601 2.56322C10.072 2.14717 10.1172 1.71594 10.2901 1.32403C10.463 0.932132 10.7558 0.597167 11.1314 0.361499C11.5071 0.125831 11.9487 4.33585e-05 12.4005 4.33585e-05C12.7007 -0.000835599 12.9982 0.0540401 13.2758 0.161513C13.5533 0.268985 13.8055 0.426933 14.0178 0.626267C14.2301 0.8256 14.3983 1.06239 14.5128 1.323C14.6273 1.58361 14.6857 1.8629 14.6848 2.1448ZM7.51684 2.1448C7.51684 2.56911 7.38279 2.9839 7.13165 3.33666C6.88051 3.68943 6.52356 3.96432 6.10598 4.12657C5.6884 4.28881 5.22894 4.33111 4.78575 4.24812C4.34256 4.16512 3.93554 3.96056 3.6162 3.66031C3.29687 3.36007 3.07956 2.97763 2.99177 2.5614C2.90399 2.14516 2.94968 1.71383 3.12305 1.32198C3.29643 0.930132 3.5897 0.595372 3.96576 0.36006C4.34183 0.124748 4.78378 -0.000541907 5.2357 4.33585e-05C5.53597 -0.000933866 5.83348 0.0538747 6.11109 0.161312C6.3887 0.26875 6.64093 0.426694 6.85326 0.626048C7.06558 0.825401 7.2338 1.06222 7.34823 1.32288C7.46266 1.58353 7.52103 1.86287 7.51999 2.1448" fill="white"/>
</svg>
