<svg width="56" height="52" viewBox="0 0 56 52" fill="none" xmlns="http://www.w3.org/2000/svg">
<path d="M50.4001 4.6656C50.1891 4.6656 49.9829 4.72813 49.8074 4.8453C49.632 4.96248 49.4953 5.12903 49.4146 5.32389C49.3338 5.51875 49.3127 5.73318 49.3539 5.94004C49.3951 6.1469 49.4967 6.33689 49.6458 6.48603C49.795 6.63517 49.985 6.73673 50.192 6.77788C50.3989 6.81903 50.6134 6.79793 50.8083 6.71722C51.0032 6.63651 51.1698 6.49982 51.287 6.32445C51.4042 6.14908 51.4667 5.9429 51.4667 5.73199C51.4667 5.44917 51.3543 5.17794 51.1543 4.97795C50.9543 4.77796 50.683 4.6656 50.4001 4.6656ZM46.1334 4.6656C45.9224 4.6656 45.7162 4.72813 45.5408 4.8453C45.3654 4.96248 45.2286 5.12903 45.1479 5.32389C45.0672 5.51875 45.0461 5.73318 45.0872 5.94004C45.1284 6.1469 45.23 6.33689 45.3792 6.48603C45.5283 6.63517 45.7184 6.73673 45.9253 6.77788C46.1322 6.81903 46.3467 6.79793 46.5416 6.71722C46.7365 6.63651 46.9031 6.49982 47.0203 6.32445C47.1375 6.14908 47.2001 5.9429 47.2001 5.73199C47.2001 5.44917 47.0877 5.17794 46.8876 4.97795C46.6876 4.77796 46.4163 4.6656 46.1334 4.6656ZM41.8667 4.6656C41.6558 4.6656 41.4495 4.72813 41.2741 4.8453C41.0987 4.96248 40.962 5.12903 40.8812 5.32389C40.8005 5.51875 40.7794 5.73318 40.8206 5.94004C40.8617 6.1469 40.9633 6.33689 41.1125 6.48603C41.2617 6.63517 41.4517 6.73673 41.6586 6.77788C41.8655 6.81903 42.08 6.79793 42.2749 6.71722C42.4698 6.63651 42.6364 6.49982 42.7536 6.32445C42.8708 6.14908 42.9334 5.9429 42.9334 5.73199C42.9334 5.44917 42.821 5.17794 42.621 4.97795C42.4209 4.77796 42.1496 4.6656 41.8667 4.6656ZM51.4667 0.400024H4.53339C3.4018 0.400024 2.31655 0.849428 1.5164 1.64938C0.716243 2.44933 0.266724 3.5343 0.266724 4.6656V38.7902C0.266724 39.9215 0.716243 41.0065 1.5164 41.8064C2.31655 42.6063 3.4018 43.0558 4.53339 43.0558H23.7974C24.1737 46.3146 25.8222 49.2929 28.384 51.3427C28.6022 51.5231 28.883 51.6096 29.1649 51.583C29.4468 51.5564 29.7065 51.4189 29.887 51.2009C30.0675 50.9828 30.1539 50.702 30.1273 50.4202C30.1007 50.1384 29.9632 49.8788 29.7451 49.6983C28.5708 48.7781 27.6143 47.6099 26.9439 46.2773C26.2734 44.9447 25.9056 43.4805 25.8667 41.9894V33.4582C25.8695 32.7989 26.0759 32.1565 26.4577 31.619C26.8396 31.0815 27.3783 30.675 28.0001 30.4552V37.7238C28.0001 38.0066 28.1125 38.2778 28.3125 38.4778C28.5125 38.6778 28.7838 38.7902 29.0667 38.7902C29.3496 38.7902 29.6209 38.6778 29.821 38.4778C30.021 38.2778 30.1334 38.0066 30.1334 37.7238V19.5951C30.1334 19.0295 30.3582 18.487 30.7582 18.087C31.1583 17.687 31.7009 17.4623 32.2667 17.4623C32.8325 17.4623 33.3751 17.687 33.7752 18.087C34.1753 18.487 34.4001 19.0295 34.4001 19.5951V28.9559C34.3999 29.1621 34.4596 29.3639 34.5718 29.537C34.684 29.71 34.844 29.8467 35.0324 29.9307C35.2208 30.0147 35.4295 30.0422 35.6333 30.01C35.837 29.9778 36.027 29.8873 36.1803 29.7493C36.5671 29.3925 37.0738 29.1938 37.6001 29.1926C38.1381 29.1965 38.6548 29.4035 39.0466 29.7721C39.4385 30.1407 39.6765 30.6438 39.7131 31.1804C39.7269 31.3808 39.797 31.5731 39.9153 31.7354C40.0336 31.8977 40.1954 32.0233 40.382 32.0977C40.5685 32.1722 40.7723 32.1924 40.9699 32.1561C41.1675 32.1199 41.3508 32.0286 41.4987 31.8928C41.7661 31.6435 42.0937 31.4679 42.4493 31.3832C42.805 31.2985 43.1765 31.3076 43.5276 31.4096C43.8787 31.5116 44.1973 31.703 44.4521 31.9651C44.7069 32.2272 44.8894 32.551 44.9814 32.9047C45.0207 33.0498 45.0903 33.185 45.1855 33.3013C45.2807 33.4177 45.3994 33.5126 45.5339 33.5798C45.6684 33.6482 45.8161 33.6868 45.9669 33.6929C46.1177 33.6989 46.268 33.6724 46.4075 33.615C46.731 33.4896 47.0801 33.4444 47.4249 33.4833C47.7696 33.5221 48.0999 33.6438 48.3874 33.838C48.6749 34.0321 48.9111 34.293 49.0758 34.5983C49.2406 34.9036 49.3289 35.2442 49.3334 35.591V45.372C49.3287 47.0193 48.6745 48.5984 47.5126 49.7666C47.4107 49.8649 47.3295 49.9826 47.2736 50.1127C47.2177 50.2428 47.1882 50.3828 47.187 50.5243C47.1858 50.6659 47.2127 50.8064 47.2664 50.9374C47.32 51.0685 47.3992 51.1875 47.4994 51.2877C47.5995 51.3878 47.7186 51.467 47.8497 51.5206C47.9808 51.5742 48.1213 51.6012 48.2629 51.6C48.4045 51.5988 48.5445 51.5693 48.6746 51.5134C48.8048 51.4575 48.9225 51.3763 49.0209 51.2744C50.5813 49.7054 51.4601 47.5846 51.4667 45.372V43.0558C52.5983 43.0558 53.6836 42.6063 54.4837 41.8064C55.2839 41.0065 55.7334 39.9215 55.7334 38.7902V4.6656C55.7334 3.5343 55.2839 2.44933 54.4837 1.64938C53.6836 0.849428 52.5983 0.400024 51.4667 0.400024ZM53.6001 38.7902C53.6001 39.3558 53.3753 39.8983 52.9752 40.2983C52.5751 40.6983 52.0325 40.923 51.4667 40.923V35.591C51.4667 34.4597 51.0172 33.3747 50.2171 32.5748C49.4169 31.7748 48.3316 31.3254 47.2001 31.3254C47.0117 31.3254 46.8235 31.3382 46.6368 31.3638C46.2665 30.707 45.7287 30.16 45.0782 29.7786C44.4276 29.3972 43.6876 29.195 42.9334 29.1926C42.4185 29.1927 41.9079 29.2874 41.4273 29.472C41.0797 28.7517 40.5365 28.1436 39.8598 27.717C39.1831 27.2905 38.4 27.0628 37.6001 27.0599C37.24 27.0596 36.8814 27.1062 36.5334 27.1985V23.8607H44.0001C44.283 23.8607 44.5543 23.7483 44.7543 23.5483C44.9543 23.3483 45.0667 23.0771 45.0667 22.7943C45.0667 22.5115 44.9543 22.2402 44.7543 22.0402C44.5543 21.8403 44.283 21.7279 44.0001 21.7279H36.5334V19.5951H48.2667C48.5496 19.5951 48.8209 19.4827 49.021 19.2827C49.221 19.0828 49.3334 18.8115 49.3334 18.5287C49.3334 18.2459 49.221 17.9747 49.021 17.7747C48.8209 17.5747 48.5496 17.4623 48.2667 17.4623H35.9403C35.5706 16.8144 35.036 16.2758 34.3908 15.9012C33.7457 15.5266 33.0128 15.3292 32.2667 15.3292C31.5206 15.3292 30.7878 15.5266 30.1426 15.9012C29.4974 16.2758 28.9628 16.8144 28.5931 17.4623H22.6667C22.3838 17.4623 22.1125 17.5747 21.9125 17.7747C21.7125 17.9747 21.6001 18.2459 21.6001 18.5287C21.6001 18.8115 21.7125 19.0828 21.9125 19.2827C22.1125 19.4827 22.3838 19.5951 22.6667 19.5951H28.0001V21.7279H22.6667C22.3838 21.7279 22.1125 21.8403 21.9125 22.0402C21.7125 22.2402 21.6001 22.5115 21.6001 22.7943C21.6001 23.0771 21.7125 23.3483 21.9125 23.5483C22.1125 23.7483 22.3838 23.8607 22.6667 23.8607H28.0001V28.1262H22.6667C22.3838 28.1262 22.1125 28.2386 21.9125 28.4386C21.7125 28.6386 21.6001 28.9098 21.6001 29.1926C21.6001 29.4755 21.7125 29.7467 21.9125 29.9467C22.1125 30.1467 22.3838 30.259 22.6667 30.259H24.8278C24.3427 30.8868 24.0055 31.6158 23.8411 32.3918H22.6667C22.3838 32.3918 22.1125 32.5042 21.9125 32.7042C21.7125 32.9042 21.6001 33.1754 21.6001 33.4582C21.6001 33.741 21.7125 34.0123 21.9125 34.2123C22.1125 34.4122 22.3838 34.5246 22.6667 34.5246H23.7334V40.923H4.53339C3.9676 40.923 3.42497 40.6983 3.02489 40.2983C2.62482 39.8983 2.40006 39.3558 2.40006 38.7902V11.064H53.6001V38.7902ZM53.6001 8.93117H2.40006V4.6656C2.40175 4.10047 2.62704 3.55895 3.02675 3.15934C3.42646 2.75973 3.96811 2.5345 4.53339 2.53281H51.4667C52.0319 2.53478 52.5734 2.76012 52.973 3.15967C53.3727 3.55922 53.5981 4.10055 53.6001 4.6656V8.93117ZM9.86672 34.5246H14.1334C14.4163 34.5246 14.6876 34.4122 14.8876 34.2123C15.0877 34.0123 15.2001 33.741 15.2001 33.4582V29.1926C15.2001 28.9098 15.0877 28.6386 14.8876 28.4386C14.6876 28.2386 14.4163 28.1262 14.1334 28.1262H9.86672C9.58383 28.1262 9.31253 28.2386 9.11249 28.4386C8.91245 28.6386 8.80006 28.9098 8.80006 29.1926V33.4582C8.80006 33.741 8.91245 34.0123 9.11249 34.2123C9.31253 34.4122 9.58383 34.5246 9.86672 34.5246ZM10.9334 30.259H13.0667V32.3918H10.9334V30.259ZM11.2448 23.5514C11.4449 23.7513 11.7161 23.8636 11.999 23.8636C12.2818 23.8636 12.5531 23.7513 12.7531 23.5514L17.0198 19.2858C17.1217 19.1875 17.2029 19.0698 17.2588 18.9397C17.3148 18.8096 17.3442 18.6697 17.3454 18.5281C17.3466 18.3865 17.3196 18.2461 17.266 18.115C17.2124 17.984 17.1332 17.8649 17.033 17.7647C16.9328 17.6646 16.8138 17.5854 16.6827 17.5318C16.5516 17.4782 16.4111 17.4512 16.2695 17.4525C16.1279 17.4537 15.9879 17.4831 15.8578 17.539C15.7276 17.5949 15.6099 17.6761 15.5115 17.778L12.0001 21.2864L10.6219 19.9076C10.4208 19.7133 10.1513 19.6058 9.87164 19.6083C9.59196 19.6107 9.32442 19.7228 9.12665 19.9205C8.92888 20.1183 8.81671 20.3857 8.81428 20.6653C8.81185 20.9449 8.91936 21.2143 9.11366 21.4154L11.2448 23.5514Z" fill="#004165"/>
</svg>
