<svg width="192" height="24" viewBox="0 0 192 24" fill="none" xmlns="http://www.w3.org/2000/svg">
<path d="M0.44 22.264C0.376 22.712 0.632 23 1.048 23H3.928C4.216 23 4.472 22.744 4.504 22.52L6.36 10.392C6.392 10.392 6.456 10.392 6.456 10.392L12.12 22.968C12.216 23.16 12.376 23.32 12.664 23.32H13.24C13.528 23.32 13.72 23.16 13.784 22.968L19.384 10.392C19.384 10.392 19.448 10.392 19.48 10.392L21.368 22.52C21.432 22.744 21.688 23 21.976 23H24.888C25.304 23 25.56 22.712 25.464 22.264L21.688 0.760029C21.656 0.50403 21.464 0.280029 21.112 0.280029H20.6C20.312 0.280029 20.152 0.40803 20.056 0.600029L13.016 15.704C12.984 15.704 12.984 15.704 12.92 15.704L5.88 0.600029C5.784 0.40803 5.592 0.280029 5.336 0.280029H4.824C4.472 0.280029 4.28 0.50403 4.248 0.760029L0.44 22.264ZM29.8495 22.392C29.8495 22.712 30.1375 23 30.4575 23H33.4335C33.7535 23 34.0415 22.712 34.0415 22.392V1.20803C34.0415 0.888029 33.7535 0.600029 33.4335 0.600029H30.4575C30.1375 0.600029 29.8495 0.888029 29.8495 1.20803V22.392ZM45.3113 11.832C45.3113 18.232 50.4633 23.32 56.8633 23.32C59.7113 23.32 62.4633 22.328 64.6393 20.216C64.8633 19.992 64.9273 19.576 64.6713 19.352L62.6873 17.304C62.4953 17.112 62.1433 17.08 61.8873 17.304C60.5433 18.392 58.9113 19.128 56.9913 19.128C52.8953 19.128 49.8233 15.736 49.8233 11.736C49.8233 7.70403 52.8633 4.28003 56.9593 4.28003C58.7513 4.28003 60.5433 4.98403 61.8873 6.16803C62.1433 6.42403 62.4633 6.42403 62.6873 6.16803L64.6393 4.15203C64.8953 3.89603 64.8953 3.51203 64.6073 3.25603C62.4313 1.30403 60.0953 0.280029 56.8633 0.280029C50.4633 0.280029 45.3113 5.43203 45.3113 11.832ZM68.8183 22.392C68.8183 22.712 69.1063 23 69.4263 23H72.4023C72.7223 23 73.0103 22.712 73.0103 22.392V1.20803C73.0103 0.888029 72.7223 0.600029 72.4023 0.600029H69.4263C69.1063 0.600029 68.8183 0.888029 68.8183 1.20803V22.392ZM78.8495 22.392C78.8495 22.712 79.1055 23 79.4575 23H87.2015C91.1055 23 94.1775 20.408 94.1775 16.824C94.1775 13.88 91.7135 12.152 90.0175 11.608C91.5215 10.904 93.5375 8.98403 93.5375 6.52003C93.5375 3.16003 90.5935 0.600029 86.7855 0.600029H79.4575C79.1055 0.600029 78.8495 0.888029 78.8495 1.20803V22.392ZM82.9775 10.008V4.40803H86.4015C88.0335 4.40803 89.1535 5.52803 89.1535 7.12803C89.1535 8.72803 88.0335 10.008 86.4015 10.008H82.9775ZM82.9775 19.224V13.528H86.4655C88.1295 13.528 89.7295 14.712 89.7295 16.312C89.7295 17.976 88.4495 19.224 86.8495 19.224H82.9775ZM98.5995 22.392C98.5995 22.712 98.8555 23 99.2075 23H112.232C112.583 23 112.84 22.712 112.84 22.392V19.768C112.84 19.448 112.583 19.16 112.232 19.16H102.76V13.56H110.664C110.984 13.56 111.272 13.304 111.272 12.952V10.296C111.272 9.97603 110.984 9.68803 110.664 9.68803H102.76V4.44003H112.232C112.583 4.44003 112.84 4.15203 112.84 3.83203V1.20803C112.84 0.888029 112.583 0.600029 112.232 0.600029H99.2075C98.8555 0.600029 98.5995 0.888029 98.5995 1.20803V22.392ZM117.412 22.392C117.412 22.712 117.668 23 118.02 23H120.964C121.284 23 121.572 22.712 121.572 22.392V14.232H125.124L129.38 22.712C129.444 22.84 129.604 23 129.892 23H133.252C133.796 23 134.02 22.488 133.796 22.072L129.412 13.944C132.196 12.824 134.148 10.424 134.148 7.48003C134.148 3.67203 131.012 0.600029 127.172 0.600029H118.02C117.668 0.600029 117.412 0.888029 117.412 1.20803V22.392ZM121.604 10.808V4.44003H126.82C128.516 4.44003 129.988 5.84803 129.988 7.54403C129.988 9.33603 128.516 10.808 126.82 10.808H121.604ZM141.733 22.392C141.733 22.712 142.021 23 142.341 23H145.317C145.637 23 145.925 22.712 145.925 22.392V4.44003H150.821C151.173 4.44003 151.429 4.15203 151.429 3.83203V1.20803C151.429 0.888029 151.173 0.600029 150.821 0.600029H136.837C136.485 0.600029 136.229 0.888029 136.229 1.20803V3.83203C136.229 4.15203 136.485 4.44003 136.837 4.44003H141.733V22.392ZM154.756 22.392C154.756 22.712 155.012 23 155.364 23H168.388C168.74 23 168.996 22.712 168.996 22.392V19.768C168.996 19.448 168.74 19.16 168.388 19.16H158.916V13.56H166.82C167.14 13.56 167.428 13.304 167.428 12.952V10.296C167.428 9.97603 167.14 9.68803 166.82 9.68803H158.916V4.44003H168.388C168.74 4.44003 168.996 4.15203 168.996 3.83203V1.20803C168.996 0.888029 168.74 0.600029 168.388 0.600029H155.364C155.012 0.600029 154.756 0.888029 154.756 1.20803V22.392ZM171.843 11.832C171.843 18.232 176.995 23.32 183.395 23.32C186.243 23.32 188.995 22.328 191.171 20.216C191.395 19.992 191.459 19.576 191.203 19.352L189.219 17.304C189.027 17.112 188.675 17.08 188.419 17.304C187.075 18.392 185.443 19.128 183.523 19.128C179.427 19.128 176.355 15.736 176.355 11.736C176.355 7.70403 179.395 4.28003 183.491 4.28003C185.283 4.28003 187.075 4.98403 188.419 6.16803C188.675 6.42403 188.995 6.42403 189.219 6.16803L191.171 4.15203C191.427 3.89603 191.427 3.51203 191.139 3.25603C188.963 1.30403 186.627 0.280029 183.395 0.280029C176.995 0.280029 171.843 5.43203 171.843 11.832Z" fill="white"/>
</svg>
